<svg width="20" height="20" viewBox="0 0 20 20" fill="none" xmlns="http://www.w3.org/2000/svg">
<path d="M8.57895 17.5789C8.57895 17.9558 8.72866 18.3173 8.99516 18.5838C9.26166 18.8503 9.62311 19 10 19C10.3769 19 10.7383 18.8503 11.0048 18.5838C11.2713 18.3173 11.4211 17.9558 11.4211 17.5789V11.4211H17.5789C17.9558 11.4211 18.3173 11.2713 18.5838 11.0048C18.8503 10.7383 19 10.3769 19 10C19 9.62311 18.8503 9.26166 18.5838 8.99516C18.3173 8.72866 17.9558 8.57895 17.5789 8.57895H11.4211V2.42105C11.4211 2.04417 11.2713 1.68272 11.0048 1.41622C10.7383 1.14972 10.3769 1 10 1C9.62311 1 9.26166 1.14972 8.99516 1.41622C8.72866 1.68272 8.57895 2.04417 8.57895 2.42105V8.57895H2.42105C2.04417 8.57895 1.68272 8.72866 1.41622 8.99516C1.14972 9.26166 1 9.62311 1 10C1 10.3769 1.14972 10.7383 1.41622 11.0048C1.68272 11.2713 2.04417 11.4211 2.42105 11.4211H8.57895V17.5789Z" fill="#0066EC" stroke="#0066EC"/>
</svg>
